<svg xmlns="http://www.w3.org/2000/svg" viewBox="0 0 119 119"><path fill="#ED8C2B" d="M60 119.5a59.5 59.5 0 1 1 59.5-59.5 59.57 59.57 0 0 1-59.5 59.5zm0-114a54.5 54.5 0 1 0 54.5 54.5 54.56 54.56 0 0 0-54.5-54.5z" transform="translate(-.5 -.5)"/><path fill="#3B3F42" d="M81.33 86.89a33.05 33.05 0 0 1-43.77-.89 1.37 1.37 0 0 0-1.86 2 35.55 35.55 0 0 0 24.22 9.47h1.26a35.41 35.41 0 0 0 21.93-8.47 1.37 1.37 0 1 0-1.78-2.11zM95.1 55.14a35.92 35.92 0 0 0-19.63-25.66 1.37 1.37 0 1 0-1.19 2.47 33.16 33.16 0 0 1 18.12 23.69 1.37 1.37 0 0 0 1.35 1.12h.25a1.37 1.37 0 0 0 1.1-1.62zM45.2 32.12a1.37 1.37 0 0 0-1.2-2.46 35.94 35.94 0 0 0-19.77 29.46 1.37 1.37 0 0 0 1.27 1.46h.1a1.37 1.37 0 0 0 1.4-1.27 33.18 33.18 0 0 1 18.2-27.19zM67.39 36.71l.06-.06 2-6.79a.12.12 0 0 0 0-.12l-.17-.13a.13.13 0 0 0-.11 0c-.51.17-1 .3-1.47.41a12.11 12.11 0 0 1-1.29.24 8 8 0 0 1-2.13 0 6.37 6.37 0 0 1-1.69-.48 9.55 9.55 0 0 1-1.44-.8.21.21 0 0 0-.29.06l-2.08 6.96a.14.14 0 0 0 .07.17 9.42 9.42 0 0 0 1.53.8 7.64 7.64 0 0 0 .9.32 7.5 7.5 0 0 0 1 .21 7.81 7.81 0 0 0 1.1.07 8.75 8.75 0 0 0 1.18 0 10.39 10.39 0 0 0 1.39-.31 13.25 13.25 0 0 0 1.44-.55zM58 35.36a.1.1 0 0 0 0-.06l2-6.78a1 1 0 0 0 .07-.29 7.16 7.16 0 0 0-3.07-1.23 6.5 6.5 0 0 0-1-.08 8.24 8.24 0 0 0-1.15.11 11.2 11.2 0 0 0-1.3.3c-.45.14-.93.32-1.46.51l-2.1 7v.09l.2.07h.08a14.66 14.66 0 0 1 2.08-.64 7.9 7.9 0 0 1 1.72-.19 6 6 0 0 1 1.27.14 6.15 6.15 0 0 1 1.11.36 10.69 10.69 0 0 1 1.36.75h.09zM71.6 21q-.72.29-1.46.5a10.91 10.91 0 0 1-1.3.29 8 8 0 0 1-1.09.1 6.6 6.6 0 0 1-1-.06 6.18 6.18 0 0 1-1.7-.49 10.56 10.56 0 0 1-1.44-.8h-.18a.41.41 0 0 0-.13.12l-2.09 7c0 .14.07.19.57.46a7.61 7.61 0 0 0 2.39 1 7.23 7.23 0 0 0 1.46.16 8.46 8.46 0 0 0 1.65-.28 10.15 10.15 0 0 0 2.55-.8.15.15 0 0 0 .09-.06l2.06-7a.32.32 0 0 0-.38-.14zM52.41 26.36a.11.11 0 0 0 0 .08.33.33 0 0 0 .3.14 9.38 9.38 0 0 1 4.47-.81 6.08 6.08 0 0 1 1.59.44 9.79 9.79 0 0 1 1.4.74h.19a.12.12 0 0 0 .09-.09l2-6.69a.54.54 0 0 0 0-.33 11.53 11.53 0 0 0-1-.59 6.15 6.15 0 0 0-2.82-.8 8.2 8.2 0 0 0-1.85.19 13.86 13.86 0 0 0-2.28.71l-.13.41zM34.17 72.72a4.7 4.7 0 0 1 2.27-4 4.86 4.86 0 0 0-3.79-2.06c-1.61-.17-3.16 1-4 1s-2.08-.93-3.42-.9a5.08 5.08 0 0 0-4.23 2.61c-1.83 3.17-.47 7.89 1.35 10.46.87 1.26 1.91 2.68 3.28 2.63s1.81-.85 3.4-.85 2 .85 3.43.83 2.27-1.29 3.18-2.55a11.42 11.42 0 0 0 1.44-3 4.59 4.59 0 0 1-2.84-4.2" transform="translate(-.5 -.5)"/><path fill="#3B3F42" d="M28.53 66.47a4.55 4.55 0 0 1 4.13-4.79c.06 2.11-1.26 4.87-4.13 4.79zM92.28 62.1a10.54 10.54 0 1 0 10.54 10.54 10.54 10.54 0 0 0-10.54-10.54zm2.37 3.63a1.41 1.41 0 1 1 .52 1.92 1.41 1.41 0 0 1-.52-1.92zm-9.54 8.27a1.41 1.41 0 1 1 1.4-1.41 1.41 1.41 0 0 1-1.4 1.41zm1.25.13a2 2 0 0 0 0-3.08 6.15 6.15 0 0 1 2.53-3.55l1 1.72a4.11 4.11 0 0 0 0 6.73l-1 1.72a6.15 6.15 0 0 1-2.53-3.49zm10.21 5.9a1.41 1.41 0 1 1 .52-1.92 1.41 1.41 0 0 1-.52 1.92zm0-3.08a2 2 0 0 0-2.65 1.54 6.15 6.15 0 0 1-4.33-.42l1-1.75a4.11 4.11 0 0 0 5.79-3.32h2a6.1 6.1 0 0 1-1.82 4zm-.19-4.74a4.11 4.11 0 0 0-5.83-3.37l-1-1.73a6.15 6.15 0 0 1 4.34-.41 2 2 0 0 0 2.65 1.54 6.1 6.1 0 0 1 1.8 4h-2z" transform="translate(-.5 -.5)"/></svg>
