<svg xmlns="http://www.w3.org/2000/svg" viewBox="0 0 119 119"><path fill="#ED8C2B" d="M60 119.5a59.5 59.5 0 1 1 59.5-59.5 59.57 59.57 0 0 1-59.5 59.5zm0-114a54.5 54.5 0 1 0 54.5 54.5 54.56 54.56 0 0 0-54.5-54.5z" transform="translate(-.5 -.5)"/><path fill="#3B3F42" d="M91.27 60a31.27 31.27 0 1 0-54.74 20.72 2.14 2.14 0 0 0 1.29.78h8.18a1.5 1.5 0 0 0 0-3h-7.65c-2.18-2-3.87-5.69-5-8.84l6.77-2.5a1.54 1.54 0 0 0 .9-2 1.51 1.51 0 0 0-1.92-.92l-6.61 2.37a28.22 28.22 0 0 1 3.33-21.28l6.57 3.79a1.5 1.5 0 0 0 1.5-2.6l-6.46-3.68a27.4 27.4 0 0 1 21-11.08v7.5a1.5 1.5 0 0 0 3 0v-7.43a29.21 29.21 0 0 1 20.79 11l-6.47 3.76a1.49 1.49 0 0 0-.52 2 1.52 1.52 0 0 0 2.07.55l6.73-3.89a28.17 28.17 0 0 1 3.32 21.67l-7.46-2.68a1.5 1.5 0 1 0-1 2.82l7.64 2.94c-1.12 3-2.77 6.54-4.88 8.54h-7.53a1.5 1.5 0 0 0 0 3h8.17a1.65 1.65 0 0 0 .88-.42 1.81 1.81 0 0 0 .38-.38 31.43 31.43 0 0 0 7.72-20.74zM73.59 65.64c.54.18.79-.26.38-.64l-5.4-4.93-3.94-3.61a4.74 4.74 0 1 0-3.18 5.15l5.2 1.73z" transform="translate(-.5 -.5)"/></svg>
