<svg xmlns="http://www.w3.org/2000/svg" viewBox="0 0 119 119"><path fill="#ED8C2B" d="M60 119.5a59.5 59.5 0 1 1 59.5-59.5 59.57 59.57 0 0 1-59.5 59.5zm0-114a54.5 54.5 0 1 0 54.5 54.5 54.56 54.56 0 0 0-54.5-54.5z" transform="translate(-.5 -.5)"/><path fill="#3B3F42" d="M53.49 64.14l-1-.39c-7.16-2.82-12.13-5.84-15.18-9.22a18.5 18.5 0 0 1-4.68-12.8 16.9 16.9 0 0 1 6.46-13.58c3.91-3.22 9.25-5.26 15.91-6.15v-8.08h10.17v7.84a60.29 60.29 0 0 1 20.67 4.84l1.32.59-2.16 5.47-7.88 7.88-.88-.29a55 55 0 0 0-11-2.48v12.67l1.38.56zm4.51-47.22v7.83l-1.35.13c-6.72.66-12 2.54-15.68 5.58a13.85 13.85 0 0 0-5.37 11.27 15.39 15.39 0 0 0 3.91 10.79c2.58 2.86 7 5.59 13.22 8.11l9.41-9.41v-16.75l1.63.14a57.5 57.5 0 0 1 12.48 2.5l6.17-6.11.88-2.19a58.77 58.77 0 0 0-19.69-4.1l-1.43-.06v-7.7h-4.18zm0 33.93l-2.1-.93a20 20 0 0 1-5.55-3.33 6.4 6.4 0 0 1-2.06-4.87c0-2.61 1.39-5.93 8-6.9l1.71-.25v16.28zm-3-12.71c-3.72 1-3.72 2.84-3.72 3.59a3.42 3.42 0 0 0 1.11 2.68 12.51 12.51 0 0 0 2.61 1.76v-8zM32.73 84.9v-13.44l2.16 1.07a48.32 48.32 0 0 0 5.11 2.12l2.23.8zm3-8.68v1.44l1-1zM65.17 104.08h-10.17v-10.52a70 70 0 0 1-9.32-1l-2.84-.5 22.3-22.3v7.85c3.62-1 4.08-2.9 4.08-4.28a3.19 3.19 0 0 0-1.22-2.54c-.23-.2-.5-.39-.78-.59l-1.45-1 12.58-12.61 1 .71a21 21 0 0 1 6.34 6.48 17.19 17.19 0 0 1 2.21 8.78 18 18 0 0 1-6.49 14.44c-4 3.32-9.41 5.41-16.24 6.22v10.83zm-7.14-3h4.14v-10.55l1.36-.12c6.85-.63 12.21-2.54 15.95-5.67a15 15 0 0 0 5.46-12.16 14.25 14.25 0 0 0-1.8-7.27 17 17 0 0 0-4.45-4.8l-8.35 8.35a6.07 6.07 0 0 1 1.92 4.5c0 2.84-1.45 6.46-8.34 7.63l-1.75.29v-4.28l-13 13a69.51 69.51 0 0 0 7.43.54h1.47v10.44zM31.09 99a4 4 0 0 1-2.78-6.85l63.79-62.92a3.9 3.9 0 0 1 2.84-1.15 4 4 0 0 1 2.78 6.85l-63.82 62.88a4 4 0 0 1-2.81 1.19zm63.82-67.92a1 1 0 0 0-.7.29l-63.82 62.88a1 1 0 0 0 .69 1.75 1 1 0 0 0 .71-.29l63.82-62.92a1 1 0 0 0-.69-1.71z" transform="translate(-.5 -.5)"/></svg>
