<?xml version="1.0" encoding="utf-8"?>
<!-- Generator: Adobe Illustrator 18.1.1, SVG Export Plug-In . SVG Version: 6.00 Build 0)  -->
<svg version="1.1" id="Layer_1" xmlns="http://www.w3.org/2000/svg" xmlns:xlink="http://www.w3.org/1999/xlink" x="0px" y="0px"
	 viewBox="0 0 14400 14400" enable-background="new 0 0 14400 14400" xml:space="preserve">
<g>
	<circle fill="none" stroke="#ED8C2B" stroke-width="5" stroke-miterlimit="10" cx="7200" cy="7200" r="57"/>
	<g>
		<path fill="none" stroke="#3B3F42" stroke-width="3" stroke-linecap="round" stroke-miterlimit="10" d="M7177.7,7220.7
			c-4.6-5.2-7.4-12.1-7.4-19.7c0-16.4,13.3-29.8,29.8-29.8s29.8,13.3,29.8,29.8c0,7.5-2.8,14.4-7.4,19.6"/>
		
			<line fill="none" stroke="#3B3F42" stroke-width="3" stroke-linecap="round" stroke-miterlimit="10" x1="7177.8" y1="7220.7" x2="7186" y2="7220.7"/>
		
			<line fill="none" stroke="#3B3F42" stroke-width="3" stroke-linecap="round" stroke-miterlimit="10" x1="7200.2" y1="7180.3" x2="7200.2" y2="7172.1"/>
		
			<line fill="none" stroke="#3B3F42" stroke-width="3" stroke-linecap="round" stroke-miterlimit="10" x1="7216.6" y1="7188.9" x2="7223.7" y2="7184.8"/>
		
			<line fill="none" stroke="#3B3F42" stroke-width="3" stroke-linecap="round" stroke-miterlimit="10" x1="7183.2" y1="7188.9" x2="7176.1" y2="7184.8"/>
		
			<line fill="none" stroke="#3B3F42" stroke-width="3" stroke-linecap="round" stroke-miterlimit="10" x1="7179.6" y1="7206.7" x2="7171.9" y2="7209.4"/>
		
			<line fill="none" stroke="#3B3F42" stroke-width="3" stroke-linecap="round" stroke-miterlimit="10" x1="7219.4" y1="7206.7" x2="7227.1" y2="7209.4"/>
		
			<line fill="none" stroke="#3B3F42" stroke-width="3" stroke-linecap="round" stroke-miterlimit="10" x1="7214.1" y1="7220.7" x2="7222.3" y2="7220.7"/>
		<circle fill="#3B3F42" cx="7200" cy="7198.2" r="4.7"/>
		<path fill="#3B3F42" d="M7199.9,7198.2l1.6-2.8c0.1-0.2,0.6-0.2,0.9,0.1l6.1,5.6l5.4,4.9c0.4,0.4,0.2,0.8-0.4,0.6l-6.9-2.3
			l-7.9-2.6c-0.4-0.1-0.6-0.5-0.5-0.7L7199.9,7198.2z"/>
	</g>
</g>
</svg>
