<?xml version="1.0" encoding="utf-8"?>
<!-- Generator: Adobe Illustrator 16.0.4, SVG Export Plug-In . SVG Version: 6.00 Build 0)  -->
<!DOCTYPE svg PUBLIC "-//W3C//DTD SVG 1.1//EN" "http://www.w3.org/Graphics/SVG/1.1/DTD/svg11.dtd">
<svg version="1.1" id="Layer_1" xmlns="http://www.w3.org/2000/svg" xmlns:xlink="http://www.w3.org/1999/xlink" x="0px" y="0px"
	 width="120px" height="120px" viewBox="0 0 120 120" enable-background="new 0 0 120 120" xml:space="preserve">
<rect x="-3" y="-3" display="none" fill="#2B2728" width="126" height="126"/>
<circle fill="none" stroke="#ED8C2B" stroke-width="5" stroke-miterlimit="10" cx="60" cy="60" r="55.197"/>
<rect x="108.645" y="131.816" display="none" fill="#ED8C2B" width="8.725" height="28.287"/>
<polygon display="none" fill="#264AA5" points="97.842,131.816 97.842,152.14 81.603,152.14 81.603,131.816 72.878,131.816 
	72.878,160.104 106.566,160.104 106.566,131.816 "/>
<polygon display="none" fill="#911146" points="46.322,152.14 46.322,139.779 71.199,139.779 71.199,131.816 37.597,131.816 
	37.597,160.104 71.199,160.104 71.199,142.168 48.746,142.168 48.746,149.646 62.49,149.646 62.49,152.14 "/>
<polygon display="none" fill="#35203B" points="27.21,131.816 27.21,152.14 10.972,152.14 10.972,131.816 2.247,131.816 
	2.247,160.104 35.935,160.104 35.935,131.816 "/>
<path fill="none" stroke="#FFFFFF" stroke-width="4.527" stroke-miterlimit="10" d="M73.519,96.799
	c14.12-5.365,24.22-18.893,24.537-34.82c0.417-21.005-16.506-38.538-37.513-38.83c-21.271-0.296-38.605,16.857-38.605,38.059
	c0,16.076,9.966,29.824,24.057,35.404c0.45,0.178,0.958-0.057,1.128-0.508l9.014-23.941c0.162-0.432-0.042-0.914-0.465-1.1
	c-4.094-1.801-6.852-6.076-6.38-10.932c0.505-5.197,4.8-9.334,10.01-9.662c6.26-0.396,11.461,4.564,11.461,10.738
	c0,4.654-2.953,8.617-7.088,10.119c-0.465,0.168-0.705,0.676-0.527,1.137l9.257,23.834C72.575,96.74,73.073,96.969,73.519,96.799z"
	/>
</svg>
