<?xml version="1.0" encoding="utf-8"?>
<!-- Generator: Adobe Illustrator 18.1.1, SVG Export Plug-In . SVG Version: 6.00 Build 0)  -->
<svg version="1.1" id="Layer_1" xmlns="http://www.w3.org/2000/svg" xmlns:xlink="http://www.w3.org/1999/xlink" x="0px" y="0px"
	 viewBox="0 0 14400 14400" enable-background="new 0 0 14400 14400" xml:space="preserve">
<g>
	<circle fill="none" stroke="#ED8C2B" stroke-width="5" stroke-miterlimit="10" cx="7199.5" cy="7199.5" r="57"/>
	<g>
		<path fill="none" stroke="#3B3F42" stroke-width="2.7411" stroke-linecap="round" stroke-miterlimit="10" d="M7222.1,7227.2
			c-5.7,4.9-13,7.9-21.1,8.2c-9.4,0.3-18.1-3.2-24.5-9.1"/>
		<path fill="none" stroke="#3B3F42" stroke-width="2.7411" stroke-linecap="round" stroke-miterlimit="10" d="M7214.8,7169.9
			c9.7,4.7,16.9,13.8,18.9,24.7"/>
		<path fill="none" stroke="#3B3F42" stroke-width="2.7411" stroke-linecap="round" stroke-miterlimit="10" d="M7165.5,7198.4
			c0.9-12.4,8.4-23,19-28.3"/>
		<g>
			<polygon fill="#3B3F42" points="7196.8,7166.1 7189.6,7166.1 7189.6,7159.6 7196.8,7158.2 			"/>
			<polygon fill="#3B3F42" points="7196.8,7174.9 7189.6,7173.4 7189.6,7166.9 7196.8,7166.9 			"/>
			<polygon fill="#3B3F42" points="7209.3,7177.3 7197.6,7175 7197.6,7166.9 7209.3,7167.1 			"/>
			<polygon fill="#3B3F42" points="7209.3,7165.9 7197.6,7166.1 7197.6,7158.1 7209.3,7155.7 			"/>
		</g>
		<g>
			<path fill-rule="evenodd" clip-rule="evenodd" fill="#3B3F42" d="M7177.9,7218c-0.6,1.3-0.8,1.8-1.6,2.9c-1,1.6-2.5,3.5-4.2,3.5
				c-1.6,0-2-1-4.1-1c-2.1,0-2.6,1-4.2,1c-1.8,0-3.1-1.8-4.2-3.3c-2.9-4.3-3.1-9.4-1.4-12.1c1.2-1.9,3.2-3,5.1-3c1.9,0,3.1,1,4.6,1
				c1.5,0,2.4-1,4.6-1c1.6,0,3.4,0.9,4.6,2.4C7173.1,7210.6,7173.8,7216.5,7177.9,7218L7177.9,7218z"/>
			<path fill-rule="evenodd" clip-rule="evenodd" fill="#3B3F42" d="M7170.9,7204.2c0.8-1,1.4-2.5,1.2-3.9c-1.3,0.1-2.8,0.9-3.7,2
				c-0.8,1-1.5,2.4-1.2,3.8C7168.6,7206.1,7170.1,7205.3,7170.9,7204.2L7170.9,7204.2z"/>
		</g>
		<g>
			<path fill-rule="evenodd" clip-rule="evenodd" fill="#3B3F42" d="M7227.4,7220.6c0.9-0.1,1.1-1.1,0.6-1.5
				c-0.4-0.4-2.4-1.8-2.9-2.4c-0.2-0.3-0.6-0.4-0.7-0.7c-0.3-0.7-0.5-1.7-0.1-2.4c0.1-0.1,0.1-0.1,0.1,0.2c-0.3,1.5,0.7,2.8,0.9,2.1
				c0.2-0.4,0-1.2,0.1-1.9c0.1-1.1,1.2-3.2,1.6-3.4c-0.7-1.3,0.8-2.3,0.8-3.4c0-0.7,0.6,0.9,1.3,1.2c0.7,0.4,1.5-0.7,2.7-1.3
				c0.3-0.2,0.7-0.3,0.7-0.5c-0.1-0.7-1.5,0.8-2.7,0.9c-0.6,0-0.8-0.1-1-0.3c-0.6-0.6,0.1-0.1,1-0.3c0.4-0.1,0.6-0.1,1-0.3
				c0.5-0.2,1-0.5,1.5-0.6c0.4-0.1,0.3-0.4,0.2-0.4c-0.1,0-0.2,0-0.3,0.1c-0.2,0.4-1.3,0.6-1.6,0.7c-0.4,0.1-0.9,0.2-1.5,0.2
				c-0.9,0-0.7-0.5-1.4-0.8c-0.2-0.1-0.1-0.4,0.1-0.7c0.1-0.1,0.5-0.2,0.7-0.5c0,0,0.3-0.3,0.4-0.4c0.1,0,0.1-1.2-0.5-1.2
				c-0.5,0-0.6,0.4-0.6,0.7c0,0.4,0.2,0.7,0.4,0.7c0.3,0,0,0.3-0.1,0.3c-0.2,0.1-0.5-0.8-0.5-1.3c0-0.5,0.3-1.3,0.9-1.3
				c0.5,0,0.9,0.7,0.9,1.8c0,0.2,0.8-0.1,1.1,0.2c0.2,0.2-0.7-2,1.3-2.2c0.5,0.1,1,0.3,1.2,1.5c-0.1,0.1,0.1,1-0.2,1.1
				c-0.4,0.1-0.6,0-0.4-0.4c0.2-0.4,0-1.3-0.8-1.3c-0.8,0.1-0.7,1.5-0.5,1.5c0.2,0,0.8,0.4,1.2,0.5c1.3,0.2,0.3,1,0.5,1.9
				c0.2,1,0.8,0.7,1.4,3.4c0.1,0.2,0.6,0.3,1.1,2.3c0.4,1.8-0.2,3.1,0.9,3c0.2,0,0.6-0.1,0.7-0.6c0.4-1.3-0.2-3-0.8-4
				c-0.3-0.6-0.7-1.1-0.8-1.2c0.7,0.4,1.5,1.7,1.7,2.6c0.3,1.2,0.4,1.8,0.1,3.1c0.2,0.1,0.8,0.4,0.8,0.6c-0.6-0.5-2.4-0.6-2.4,0.6
				c-0.3,0-0.5,0-0.7,0.3c-0.7,0.9-0.1,2.6-0.1,3.5c-0.1,0.8-0.3,1.6-0.4,2.4c-0.4,0-0.4-0.3-0.2-0.8c0.1-0.4,0.3-0.9,0.3-1.3
				c0-0.4,0-0.7-0.1-0.8c-0.1-0.1-0.3,0.1-0.5,0.4c-0.5,0.8-1.6,1.1-2.6,1.3s-1.9,0-2.4-0.5c-0.2-0.2-0.4,0.1-0.5,0.1
				c0,0.1,0.2,0.2,0.3,0.5c0.2,0.4,0.4,1.1-0.1,1.3C7228.4,7221.6,7227.9,7221.5,7227.4,7220.6L7227.4,7220.6z M7227.1,7220.5
				c0.4,0.6,1.6,2.9-0.6,3.2c-0.7,0.1-1.9-0.4-3.1-0.7c-1-0.3-2.1-0.4-2.7-0.6c-0.4-0.1-0.5-0.2-0.5-0.4c-0.1-0.4,0.4-0.9,0.5-1.4
				s-0.2-0.7-0.3-1.1c-0.2-0.4-0.2-0.7-0.1-0.8c0.1-0.1,0.3-0.2,0.6-0.1c0.4,0,0.9,0,1.2-0.2c0.5-0.3,0.7-0.9,0.5-1.5
				c0,0.7-0.2,0.9-0.8,1.2c-0.5,0.3-1.3,0.1-1.7,0.4c-0.4,0.4,0.2,1.4,0.1,2.1c0,0.6-0.6,1.2-0.4,1.8c0.3,0.6,1.5,0.6,2.8,0.9
				c1.8,0.4,2.9,1,3.7,1.1c1.2,0,1.4-1.2,3.3-1.2c0.6,0,1.1,0,1.7-0.1c0.6,0,1.2,0,1.9,0c1.3,0,0.8,0.7,1.7,1.1
				c0.7,0.4,2,0.2,2.3-0.1c0.4-0.4,1.5-1.3,2.3-1.8c1-0.5,3.5-1.4,1.7-2.5c-0.4-0.3-1.4-0.5-1.5-2.4c-0.4,0.3-0.3,2.1,0.7,2.4
				c1.2,0.4,1.9,1-0.3,1.8c-1.4,0.5-1.7,0.6-2.8,1.6c-1.1,1-2.8,0.6-2.6-1.4c0.2-1,0.2-1.9,0-2.8c-0.1-0.4-0.2-1-0.1-1.4
				c0.2-0.8,0.6-1,1-0.3c0.3,0.5,0.3,1,1.3,1.1c1.5,0.1,1.7-1.4,2.2-1.5c0.3,0,0.6-0.9,0.4-2.3c-0.3-1.5-1.1-3.9-2.3-5.1
				c-1-1-1.6-1.9-1.9-3.2c-0.3-1.1-0.5-2.1-0.4-3.1c0.1-1.3-0.6-3.1-1.8-3.9c-0.7-0.5-1.8-0.8-2.8-0.8c-0.6,0-1.1,0.1-1.5,0.3
				c-1.7,0.9-1.9,2.2-1.9,3.7c0,1.4,0.1,3,0.2,4.5c-0.2,0.7-1.2,2-1.8,2.8c-0.8,0.8-1.3,2.4-1.8,3.8c-0.3,0.7-0.8,1.1-0.8,2.1
				c0,0.3,0,1,0.3,0.8C7224,7215.7,7225.2,7217.6,7227.1,7220.5L7227.1,7220.5z M7232.2,7200.4c-0.1,0.2-0.3,0.3-0.1,0.4
				c0.1,0.1,0.2-0.2,0.5-0.3c0.1,0,0.4,0,0.5-0.1c0-0.1-0.2-0.1-0.3-0.3c-0.1-0.1-0.2-0.2-0.3-0.2
				C7232.1,7199.9,7232.2,7200.2,7232.2,7200.4L7232.2,7200.4z M7233.9,7206.2c0.1-0.1,0.2,0.2,0.4,0.4c0.2,0.1,0.4,0,0.5,0.3
				c0,0.2-0.1,0.4-0.3,0.4C7234.3,7207.2,7233.6,7206.5,7233.9,7206.2L7233.9,7206.2z M7229.3,7204.4c-0.5,0-0.5,0.3-0.3,0.3
				C7229.1,7204.7,7229,7204.4,7229.3,7204.4L7229.3,7204.4z M7228.5,7203.5c0.1,0,0.1,0.1,0.1,0.2c0,0.2,0,0.3,0.1,0.3
				c0,0,0,0,0.1-0.1c0.1-0.4-0.1-0.6-0.2-0.6C7228.4,7203.3,7228.4,7203.6,7228.5,7203.5L7228.5,7203.5z M7231.8,7203.4
				c0.1,0,0.2,0.2,0.3,0.5c0,0,0.2,0,0.2-0.1c0-0.4-0.3-0.5-0.4-0.5C7231.7,7203.3,7231.7,7203.4,7231.8,7203.4L7231.8,7203.4z
				 M7230.1,7204.4c0.4-0.2,0.6,0.1,0.4,0.2C7230.4,7204.6,7230.4,7204.4,7230.1,7204.4L7230.1,7204.4z M7225,7211.6
				c-0.2,0,0.1-0.2,0.2-0.4c0.1-0.2,0.1-0.5,0.2-0.4c0.1,0,0.1,0.2,0,0.4C7225.3,7211.4,7225.1,7211.6,7225,7211.6L7225,7211.6z"/>
		</g>
	</g>
</g>
</svg>
