<?xml version="1.0" encoding="utf-8"?>
<!-- Generator: Adobe Illustrator 18.1.1, SVG Export Plug-In . SVG Version: 6.00 Build 0)  -->
<svg version="1.1" id="Layer_1" xmlns="http://www.w3.org/2000/svg" xmlns:xlink="http://www.w3.org/1999/xlink" x="0px" y="0px"
	 viewBox="0 0 14400 14400" enable-background="new 0 0 14400 14400" xml:space="preserve">
<g>
	<circle fill="none" stroke="#ED8C2B" stroke-width="5" stroke-miterlimit="10" cx="7200" cy="7200" r="57"/>
	<g>
		<path fill="none" stroke="#3B3F42" stroke-width="3" stroke-miterlimit="10" d="M7192,7203.4L7192,7203.4l10.9-10.8
			c-0.1,0-0.2-0.1-0.3-0.1v-15.4c4.4,0.4,8.8,1.3,13,2.7l7-7l1.5-3.8c-6.4-2.8-13.6-4.4-21.6-4.8v-7.8h-7.1v8
			c-7.1,0.7-12.5,2.7-16.5,5.9c-3.9,3.2-5.9,7.4-5.9,12.4c0,4.7,1.4,8.6,4.3,11.8C7180.3,7197.7,7185.2,7200.6,7192,7203.4z
			 M7195.5,7177.3v12.2c-2.4-1-4.1-2.1-5.1-3c-1.1-1-1.6-2.2-1.6-3.8C7188.8,7179.8,7191,7178,7195.5,7177.3z"/>
		<path fill="none" stroke="#3B3F42" stroke-width="3" stroke-miterlimit="10" d="M7173.2,7222.3l5.2-5.2c-1.9-0.7-3.6-1.4-5.2-2.2
			V7222.3z"/>
		<path fill="none" stroke="#3B3F42" stroke-width="3" stroke-miterlimit="10" d="M7217.5,7199.5l-10.4,10.4
			c0.3,0.2,0.6,0.5,0.9,0.7c1.2,1,1.8,2.2,1.8,3.7c0,3.3-2.4,5.4-7.1,6.1v-6.1l-17.7,17.7c3.3,0.6,6.8,0.9,10.6,1v10.5h7.1v-10.7
			c7.2-0.7,12.8-2.7,16.8-6c4-3.4,6-7.8,6-13.3c0-3.1-0.7-5.7-2-8C7222.2,7203.4,7220.2,7201.4,7217.5,7199.5z"/>
	</g>
	<g>
		<path fill="none" stroke="#3B3F42" stroke-width="3" stroke-miterlimit="10" d="M7168.3,7237.7c-1-1-1-2.6,0-3.5l63.8-62.9
			c1-1,2.6-1,3.5,0s1,2.6,0,3.5l-63.8,62.9C7170.9,7238.7,7169.3,7238.7,7168.3,7237.7z"/>
	</g>
</g>
</svg>
