<?xml version="1.0" encoding="utf-8"?>
<!-- Generator: Adobe Illustrator 16.0.4, SVG Export Plug-In . SVG Version: 6.00 Build 0)  -->
<!DOCTYPE svg PUBLIC "-//W3C//DTD SVG 1.1//EN" "http://www.w3.org/Graphics/SVG/1.1/DTD/svg11.dtd">
<svg version="1.1" id="Layer_1" xmlns="http://www.w3.org/2000/svg" xmlns:xlink="http://www.w3.org/1999/xlink" x="0px" y="0px"
	 width="120px" height="120px" viewBox="0 0 120 120" enable-background="new 0 0 120 120" xml:space="preserve">
<rect x="-3" y="-3" display="none" fill="#2B2728" width="126" height="126"/>
<circle fill="none" stroke="#ED8C2B" stroke-width="5" stroke-miterlimit="10" cx="60" cy="60" r="55.197"/>
<rect x="108.645" y="131.816" display="none" fill="#ED8C2B" width="8.725" height="28.287"/>
<polygon display="none" fill="#264AA5" points="97.842,131.816 97.842,152.14 81.603,152.14 81.603,131.816 72.878,131.816 
	72.878,160.104 106.566,160.104 106.566,131.816 "/>
<polygon display="none" fill="#911146" points="46.322,152.14 46.322,139.779 71.199,139.779 71.199,131.816 37.597,131.816 
	37.597,160.104 71.199,160.104 71.199,142.168 48.746,142.168 48.746,149.646 62.49,149.646 62.49,152.14 "/>
<polygon display="none" fill="#35203B" points="27.21,131.816 27.21,152.14 10.972,152.14 10.972,131.816 2.247,131.816 
	2.247,160.104 35.935,160.104 35.935,131.816 "/>
<g>
	<path fill="none" stroke="#FFFFFF" stroke-width="2.741" stroke-linecap="round" stroke-miterlimit="10" d="M85.99,86.888
		c-6.244,6.901-16.3,10.149-24.367,10.425c-9.415,0.322-18.076-3.168-24.497-9.084"/>
	<path fill="none" stroke="#FFFFFF" stroke-width="2.741" stroke-linecap="round" stroke-miterlimit="10" d="M75.368,31.936
		c9.717,4.695,16.855,13.813,18.877,24.676"/>
	<path fill="none" stroke="#FFFFFF" stroke-width="2.741" stroke-linecap="round" stroke-miterlimit="10" d="M26.097,60.436
		c0.891-12.431,8.384-23.035,18.991-28.324"/>
	<path fill-rule="evenodd" clip-rule="evenodd" fill="#FFFFFF" d="M38.107,79.037c-0.53,1.173-0.784,1.698-1.467,2.734
		c-0.952,1.45-2.293,3.255-3.957,3.27c-1.478,0.015-1.855-0.962-3.862-0.95c-2.006,0.011-2.424,0.969-3.901,0.956
		c-1.663-0.017-2.936-1.646-3.887-3.095c-2.663-4.052-2.941-8.809-1.299-11.336c1.166-1.797,3.008-2.848,4.738-2.848
		c1.764,0,2.871,0.965,4.328,0.965c1.414,0,2.275-0.967,4.312-0.967c1.54,0,3.172,0.838,4.336,2.288
		C33.639,72.142,34.258,77.582,38.107,79.037"/>
	<path fill-rule="evenodd" clip-rule="evenodd" fill="#FFFFFF" d="M31.567,66.146c0.74-0.948,1.302-2.291,1.099-3.662
		c-1.21,0.082-2.624,0.853-3.449,1.855c-0.751,0.911-1.368,2.261-1.128,3.573C29.409,67.953,30.774,67.165,31.567,66.146"/>
	<path id="lin2" fill="#FFFFFF" d="M79.539,72.148c-1.157,0-2.095,0.938-2.095,2.095c0,1.156,0.938,2.094,2.095,2.094
		c1.156,0,2.095-0.938,2.095-2.094C81.634,73.086,80.695,72.148,79.539,72.148L79.539,72.148z M94.493,81.668
		c-1.002,0.578-1.345,1.858-0.766,2.86c0.577,1.001,1.858,1.345,2.86,0.766c1.001-0.578,1.345-1.858,0.767-2.86
		C96.777,81.432,95.496,81.089,94.493,81.668L94.493,81.668z M84.089,74.243c0-2.07,1.027-3.898,2.602-5.007l-1.531-2.564
		c-1.833,1.225-3.196,3.097-3.763,5.29c0.661,0.539,1.085,1.36,1.085,2.281c0,0.92-0.424,1.741-1.085,2.28
		c0.565,2.192,1.93,4.065,3.763,5.29l1.531-2.565c-1.572-1.108-2.602-2.935-2.602-5.007V74.243z M90.207,68.125
		c3.196,0,5.817,2.45,6.093,5.575l2.985-0.044c-0.147-2.307-1.155-4.379-2.704-5.901c-0.796,0.301-1.717,0.255-2.511-0.204
		c-0.797-0.46-1.297-1.234-1.433-2.076c-0.774-0.214-1.589-0.33-2.431-0.33c-1.449,0-2.817,0.339-4.033,0.94l1.455,2.608
		C88.413,68.329,89.285,68.124,90.207,68.125L90.207,68.125z M90.207,80.361c-0.922,0-1.794-0.205-2.578-0.57l-1.454,2.608
		c1.215,0.603,2.584,0.942,4.032,0.942c0.843,0,1.657-0.117,2.431-0.331c0.138-0.841,0.637-1.616,1.433-2.076
		c0.795-0.459,1.716-0.505,2.512-0.204c1.549-1.523,2.557-3.595,2.703-5.902L96.3,74.785C96.027,77.91,93.405,80.36,90.207,80.361
		L90.207,80.361z M94.493,66.816c1.002,0.58,2.282,0.236,2.861-0.765c0.578-1.003,0.235-2.283-0.767-2.861
		c-1.001-0.579-2.282-0.235-2.86,0.766C93.147,64.958,93.491,66.239,94.493,66.816L94.493,66.816z"/>
	<g id="win2">
		<path id="win3" fill="#FFFFFF" d="M62.701,20.035l-2.152,7.56c0,0-3.035-2.814-8.224-0.434l2.135-7.322
			C54.46,19.838,59.026,17.075,62.701,20.035L62.701,20.035z"/>
		<path id="win4" fill="#FFFFFF" d="M60.23,28.792l-2.152,7.559c0,0-3.034-2.812-8.223-0.434l2.136-7.321
			C51.991,28.595,56.557,25.832,60.23,28.792L60.23,28.792z"/>
		<path id="win5" fill="#FFFFFF" d="M61.396,28.152l2.152-7.559c0,0,3.034,3.016,8.223,0.636l-2.135,7.434
			C69.637,28.663,65.07,31.112,61.396,28.152z"/>
		<path id="win6" fill="#FFFFFF" d="M58.972,36.842l2.152-7.56c0,0,3.011,3.083,8.2,0.704l-2.111,7.365
			C67.213,37.352,62.646,39.801,58.972,36.842L58.972,36.842z"/>
	</g>
</g>
</svg>
