<?xml version="1.0" encoding="utf-8"?>
<!-- Generator: Adobe Illustrator 16.0.4, SVG Export Plug-In . SVG Version: 6.00 Build 0)  -->
<!DOCTYPE svg PUBLIC "-//W3C//DTD SVG 1.1//EN" "http://www.w3.org/Graphics/SVG/1.1/DTD/svg11.dtd">
<svg version="1.1" id="Layer_1" xmlns="http://www.w3.org/2000/svg" xmlns:xlink="http://www.w3.org/1999/xlink" x="0px" y="0px"
	 width="120px" height="120px" viewBox="0 0 120 120" enable-background="new 0 0 120 120" xml:space="preserve">
<rect x="-3" y="-3" display="none" fill="#2B2728" width="126" height="126"/>
<circle fill="none" stroke="#ED8C2B" stroke-width="5" stroke-miterlimit="10" cx="60" cy="60" r="55.197"/>
<rect x="108.645" y="131.816" display="none" fill="#ED8C2B" width="8.725" height="28.287"/>
<polygon display="none" fill="#264AA5" points="97.842,131.816 97.842,152.14 81.603,152.14 81.603,131.816 72.878,131.816 
	72.878,160.104 106.566,160.104 106.566,131.816 "/>
<polygon display="none" fill="#911146" points="46.322,152.14 46.322,139.779 71.199,139.779 71.199,131.816 37.597,131.816 
	37.597,160.104 71.199,160.104 71.199,142.168 48.746,142.168 48.746,149.646 62.49,149.646 62.49,152.14 "/>
<polygon display="none" fill="#35203B" points="27.21,131.816 27.21,152.14 10.972,152.14 10.972,131.816 2.247,131.816 
	2.247,160.104 35.935,160.104 35.935,131.816 "/>
<g>
	<path fill="none" stroke="#FFFFFF" stroke-width="3" stroke-miterlimit="10" d="M50.039,63.359l0.078,0.031l10.814-10.816
		c-0.09-0.035-0.172-0.068-0.264-0.104V37.102c4.424,0.379,8.762,1.295,13.018,2.721l7.01-7.01l1.541-3.838
		c-6.426-2.848-13.615-4.445-21.569-4.794v-7.763H53.53v7.971c-7.052,0.696-12.548,2.667-16.49,5.914
		c-3.942,3.25-5.913,7.391-5.913,12.426c0,4.689,1.432,8.621,4.298,11.799C38.291,57.707,43.162,60.65,50.039,63.359z M53.53,37.311
		v12.242c-2.362-1.041-4.073-2.058-5.132-3.047c-1.06-0.99-1.589-2.248-1.589-3.777C46.809,39.777,49.049,37.971,53.53,37.311z"/>
	<path fill="none" stroke="#FFFFFF" stroke-width="3" stroke-miterlimit="10" d="M31.231,82.275l5.217-5.217
		c-1.903-0.682-3.647-1.408-5.217-2.186V82.275z"/>
	<path fill="none" stroke="#FFFFFF" stroke-width="3" stroke-miterlimit="10" d="M75.53,59.541L65.096,69.975
		c0.32,0.229,0.623,0.455,0.887,0.68c1.18,1.008,1.771,2.24,1.771,3.697c0,3.303-2.362,5.352-7.086,6.148v-6.096L42.971,92.1
		c3.322,0.586,6.834,0.934,10.559,1.008v10.475h7.137V92.9c7.191-0.66,12.783-2.666,16.777-6.018s5.992-7.789,5.992-13.312
		c0-3.055-0.67-5.73-2.006-8.023C80.159,63.371,78.178,61.373,75.53,59.541z"/>
	<path fill="none" stroke="#FFFFFF" stroke-width="3" stroke-miterlimit="10" d="M26.311,97.717
		c-0.969-0.984-0.958-2.566,0.026-3.535l63.817-62.885c0.983-0.97,2.566-0.957,3.535,0.026s0.957,2.565-0.025,3.535L29.846,97.742
		C28.863,98.713,27.28,98.701,26.311,97.717z"/>
</g>
</svg>
