<?xml version="1.0" encoding="utf-8"?>
<!-- Generator: Adobe Illustrator 18.1.1, SVG Export Plug-In . SVG Version: 6.00 Build 0)  -->
<svg version="1.1" id="Layer_1" xmlns="http://www.w3.org/2000/svg" xmlns:xlink="http://www.w3.org/1999/xlink" x="0px" y="0px"
	 viewBox="0 0 14400 14400" enable-background="new 0 0 14400 14400" xml:space="preserve">
<g>
	<circle fill="none" stroke="#ED8C2B" stroke-width="5" stroke-miterlimit="10" cx="7200" cy="7200" r="57"/>
	<path fill="none" stroke="#3B3F42" stroke-width="4.5275" stroke-miterlimit="10" d="M7213.5,7236.8c14.1-5.4,24.2-18.9,24.5-34.8
		c0.4-21-16.5-38.5-37.5-38.8c-21.3-0.3-38.6,16.9-38.6,38.1c0,16.1,10,29.8,24.1,35.4c0.4,0.2,1-0.1,1.1-0.5l9-23.9
		c0.2-0.4,0-0.9-0.5-1.1c-4.1-1.8-6.9-6.1-6.4-10.9c0.5-5.2,4.8-9.3,10-9.7c6.3-0.4,11.5,4.6,11.5,10.7c0,4.7-3,8.6-7.1,10.1
		c-0.5,0.2-0.7,0.7-0.5,1.1l9.3,23.8C7212.6,7236.7,7213.1,7237,7213.5,7236.8z"/>
</g>
</svg>
