<svg xmlns="http://www.w3.org/2000/svg" viewBox="0 0 27.56 24.05"><path d="M21.83 23a.19.19 0 0 0 .07-.07l2.51-8.53a.15.15 0 0 0 0-.15l-.21-.16a.16.16 0 0 0-.14 0c-.64.21-1.27.38-1.85.52a15.22 15.22 0 0 1-1.62.3 10 10 0 0 1-2.68 0 8 8 0 0 1-2.12-.6 12 12 0 0 1-1.81-1 .26.26 0 0 0-.37.1l-2.61 8.67a.18.18 0 0 0 .09.21 11.84 11.84 0 0 0 1.92 1 9.6 9.6 0 0 0 1.13.4 9.42 9.42 0 0 0 1.25.26 9.82 9.82 0 0 0 1.38.09 11 11 0 0 0 1.48 0 13.06 13.06 0 0 0 1.75-.39 16.65 16.65 0 0 0 1.83-.65zM10.05 21.31a.13.13 0 0 0 .06-.07l2.55-8.52a1.23 1.23 0 0 0 .09-.36 9 9 0 0 0-3.92-1.62 8.17 8.17 0 0 0-1.29-.1 10.36 10.36 0 0 0-1.44.14 14.07 14.07 0 0 0-1.63.38c-.57.17-1.17.4-1.83.64l-2.64 8.81v.11l.21.14a.14.14 0 0 0 .1 0 18.42 18.42 0 0 1 2.62-.8 9.93 9.93 0 0 1 2.16-.24 7.59 7.59 0 0 1 1.6.18 7.73 7.73 0 0 1 1.4.45 13.44 13.44 0 0 1 1.71.94.14.14 0 0 0 .1 0zM27.12 3.25q-.9.36-1.83.63a13.71 13.71 0 0 1-1.63.37 10.06 10.06 0 0 1-1.37.13 8.3 8.3 0 0 1-1.29-.08 7.76 7.76 0 0 1-2.14-.62 13.27 13.27 0 0 1-1.81-1h-.05v-.05h-.15a.51.51 0 0 0-.16.15l-2.63 8.78c-.05.17.09.24.72.58a9.56 9.56 0 0 0 3 1.22 9.08 9.08 0 0 0 1.83.2 10.63 10.63 0 0 0 2.08-.19 12.76 12.76 0 0 0 3.2-1 .19.19 0 0 0 .11-.07l2.59-8.74a.4.4 0 0 0-.47-.31zM3 10a.14.14 0 0 0 0 .1.42.42 0 0 0 .38.17 11.79 11.79 0 0 1 5.62-1.02 7.64 7.64 0 0 1 2 .55 12.3 12.3 0 0 1 1.76.93h.09l.15-.06a.15.15 0 0 0 .11-.11l2.5-8.41a.68.68 0 0 0 .06-.41 14.49 14.49 0 0 0-1.29-.74 7.73 7.73 0 0 0-3.54-1 10.31 10.31 0 0 0-2.33.24 17.42 17.42 0 0 0-2.86.89l-.16.52z" transform="translate(-.01)"/></svg>
