<svg xmlns="http://www.w3.org/2000/svg" viewBox="0 0 22.34 27.42"><path d="M18.66 14.57a6.2 6.2 0 0 1 3-5.22 6.41 6.41 0 0 0-5-2.72c-2.13-.22-4.17 1.26-5.25 1.26s-2.75-1.23-4.52-1.19a6.71 6.71 0 0 0-5.67 3.44c-2.42 4.19-.62 10.41 1.78 13.81 1.15 1.66 2.52 3.54 4.33 3.47s2.39-1.12 4.49-1.12 2.69 1.12 4.53 1.09 3-1.7 4.2-3.37a15.08 15.08 0 0 0 1.9-3.9 6.06 6.06 0 0 1-3.75-5.55" transform="translate(-.07)"/><path d="M11.21 6.32a6 6 0 0 1 5.45-6.32c.09 2.77-1.66 6.42-5.45 6.32z" transform="translate(-.07)"/></svg>
