<svg xmlns="http://www.w3.org/2000/svg" viewBox="0 0 27.42 27.42"><path d="M14.5.79a13.71 13.71 0 1 0 13.71 13.71 13.71 13.71 0 0 0-13.71-13.71zm3.08 4.72a1.83 1.83 0 1 1 .67 2.49 1.83 1.83 0 0 1-.67-2.49zm-12.4 10.82a1.83 1.83 0 1 1 1.82-1.83 1.83 1.83 0 0 1-1.82 1.83zm1.62.17a2.57 2.57 0 0 0 0-4 8 8 0 0 1 3.29-4.62l1.34 2.24a5.35 5.35 0 0 0 0 8.75l-1.34 2.24a8 8 0 0 1-3.29-4.61zm13.28 7.67a1.83 1.83 0 1 1 .67-2.5 1.83 1.83 0 0 1-.67 2.49zm0-4a2.57 2.57 0 0 0-3.45 2 8 8 0 0 1-5.63-.54l1.27-2.28a5.35 5.35 0 0 0 7.56-4.35h2.61a7.93 7.93 0 0 1-2.37 5.17zm-.25-6.17a5.35 5.35 0 0 0-7.58-4.38l-1.25-2.25a8 8 0 0 1 5.65-.53 2.57 2.57 0 0 0 3.45 2 7.93 7.93 0 0 1 2.34 5.16z" transform="translate(-.79 -.79)"/></svg>
