<svg id="mac" xmlns="http://www.w3.org/2000/svg" height="40" width="40" viewBox="0 0 560 560"><path id="mac2" d="m432.84,297.52c0.787,84.751,74.349,112.95,75.164,113.31-0.622,1.989-11.754,40.192-38.756,79.653-23.342,34.116-47.568,68.107-85.731,68.811-37.499,0.691-49.557-22.237-92.429-22.237-42.859,0-56.256,21.533-91.753,22.928-36.837,1.394-64.888-36.892-88.424-70.883-48.093-69.53-84.846-196.48-35.496-282.16,24.516-42.554,68.328-69.501,115.88-70.192,36.173-0.69,70.316,24.336,92.429,24.336,22.099,0,63.59-30.096,107.21-25.676,18.26,0.76,69.516,7.376,102.43,55.552-2.652,1.644-61.159,35.704-60.523,106.56m-70.47-208.11c19.557-23.673,32.72-56.628,29.129-89.418-28.19,1.133-62.28,18.785-82.5,42.445-18.121,20.952-33.991,54.487-29.709,86.628,31.421,2.431,63.52-15.967,83.078-39.655"/></svg>