<svg xmlns="http://www.w3.org/2000/svg" viewBox="0 0 119 119"><path d="M60 119.5a59.5 59.5 0 1 1 59.5-59.5 59.57 59.57 0 0 1-59.5 59.5zm0-114a54.5 54.5 0 1 0 54.5 54.5 54.56 54.56 0 0 0-54.5-54.5z" transform="translate(-.5 -.5)" fill="#ED8C2B"/><path d="M73.22 99.12a3.15 3.15 0 0 1-2.93-2l-9.29-23.84a3.11 3.11 0 0 1 .07-2.43 3.17 3.17 0 0 1 1.8-1.66 8.52 8.52 0 0 0 5.6-8 8.5 8.5 0 0 0-9.05-8.48 8.5 8.5 0 0 0-2.84 16.29 3.13 3.13 0 0 1 1.67 4l-9 23.94a3.16 3.16 0 0 1-1.67 1.76 3.1 3.1 0 0 1-2.41.05 40.33 40.33 0 1 1 29.16.2 3.09 3.09 0 0 1-1.11.17zm-7.48-26.22l8.26 21.27a35.8 35.8 0 1 0-28.49-.17l8.06-21.42a13 13 0 1 1 12.17.32z" transform="translate(-.5 -.5)" fill="#3B3F42"/></svg>
