<svg id="win" height="40" width="40" xmlns:rdf="http://www.w3.org/1999/02/22-rdf-syntax-ns#" xmlns="http://www.w3.org/2000/svg" viewBox="0 0 500 500" xmlns:i="&amp;ns_ai;" xmlns:cc="http://creativecommons.org/ns#" xmlns:xlink="http://www.w3.org/1999/xlink" xmlns:dc="http://purl.org/dc/elements/1.1/"><g id="win2" fill="#000"><path id="win3" d="M292.89,57.94,243.97,229.75s-68.982-63.949-186.88-9.857l48.5-166.4c0-0.001,103.8-62.812,187.3,4.453z"/><path id="win4" d="M236.76,256.95,187.84,428.76s-68.982-63.949-186.88-9.857l48.496-166.4s103.8-62.812,187.3,4.454z"/><path id="win5" d="M263.24,242.44,312.16,70.636s68.982,68.542,186.88,14.451l-48.5,168.95c0,0.001-103.8,55.668-187.3-11.597z"/><path id="win6" d="m208.13,439.93,48.918-171.81s68.473,70.073,186.37,15.982l-47.991,167.42s-103.8,55.668-187.3-11.597z"/></g></svg>